<?xml version="1.0" encoding="UTF-8"?>
<svg id="Capa_2" data-name="Capa 2" xmlns="http://www.w3.org/2000/svg" viewBox="0 0 157.41 39.98">
  <defs>
    <style>
      .cls-1 {
        fill: #179bd7;
      }

      .cls-2 {
        fill: #d1d1d0;
      }

      .cls-3 {
        fill: #fff;
      }

      .cls-4 {
        fill: #232652;
      }
    </style>
  </defs>
  <g id="Capa_1-2" data-name="Capa 1">
    <g>
      <g>
        <path class="cls-4" d="M65.09,23.49h4.69v6.07h-1.56l-.23-1.41c-.59.69-1.45,1.71-3.5,1.71-2.7,0-5.16-1.94-5.16-5.9,0-3.06,1.69-5.96,5.46-5.96h.03c3.44,0,4.8,2.24,4.92,3.8h-2.35c0-.44-.8-1.85-2.45-1.85s-3.22,1.16-3.22,4.05c0,3.07,1.67,3.87,3.27,3.87.52,0,2.24-.2,2.72-2.48h-2.61v-1.9Z"/>
        <path class="cls-4" d="M80.97,25.62c0,2.96-1.78,4.23-4.61,4.23-1.03,0-2.56-.25-3.56-1.36-.61-.69-.84-1.6-.88-2.73v-7.46h2.39v7.31c0,1.57.91,2.26,2,2.26,1.61,0,2.27-.78,2.27-2.15v-7.42h2.39v7.32Z"/>
        <path class="cls-4" d="M84.08,29.56h-2.47l4-11.26h2.7l3.96,11.26h-2.55l-.72-2.32h-4.14l-.78,2.32ZM85.49,25.29h2.86l-1.39-4.45h-.03l-1.44,4.45Z"/>
        <polygon class="cls-4" points="97.32 29.56 94.97 29.56 94.97 25.31 91.1 18.3 93.86 18.3 96.19 23.19 98.41 18.3 101.07 18.3 97.32 25.34 97.32 29.56"/>
        <path class="cls-4" d="M102.35,29.56h-2.47l4-11.26h2.7l3.96,11.26h-2.55l-.72-2.32h-4.14l-.78,2.32ZM103.76,25.29h2.86l-1.39-4.45h-.03l-1.44,4.45Z"/>
        <path class="cls-4" d="M120.52,30.37l-1.33-1.27c-1.06.63-2.22.75-2.88.75-1.49,0-5.39-.64-5.39-5.93s3.91-5.93,5.39-5.93,5.39.64,5.39,5.93c0,1.85-.48,3.14-1.17,4.01l1.22,1.16-1.23,1.27ZM117.66,25.23l1.19,1.11c.31-.58.52-1.36.52-2.41,0-3.15-1.78-3.94-3.05-3.94s-3.05.78-3.05,3.94,1.78,3.94,3.05,3.94c.39,0,.84-.08,1.27-.3l-1.13-1.07,1.2-1.27Z"/>
        <path class="cls-4" d="M132.41,25.62c0,2.96-1.78,4.23-4.61,4.23-1.03,0-2.56-.25-3.56-1.36-.61-.69-.84-1.6-.88-2.73v-7.46h2.39v7.31c0,1.57.91,2.26,2,2.26,1.61,0,2.27-.78,2.27-2.15v-7.42h2.39v7.32Z"/>
        <rect class="cls-4" x="134.52" y="18.3" width="2.35" height="11.26"/>
        <polygon class="cls-4" points="141.4 27.52 146.98 27.52 146.98 29.56 139.06 29.56 139.06 18.3 141.4 18.3 141.4 27.52"/>
      </g>
      <g>
        <g>
          <polygon class="cls-1" points="113.57 8.32 118.47 8.32 118.47 9.04 116.43 9.04 116.43 14.37 115.61 14.37 115.61 9.04 113.57 9.04 113.57 8.32"/>
          <path class="cls-1" d="M121.85,12.99c-.02.21-.23.83-.78,1.2-.2.14-.49.3-1.19.3-1.23,0-1.96-.93-1.96-2.21,0-1.36.65-2.45,2.11-2.45,1.27,0,1.89,1.01,1.89,2.57h-3.21c0,.92.43,1.45,1.28,1.45.7,0,1.11-.54,1.13-.87h.74ZM121.14,11.81c-.04-.68-.33-1.31-1.23-1.31-.68,0-1.22.63-1.22,1.31h2.44Z"/>
          <path class="cls-1" d="M125.54,11.44c-.09-.59-.42-.94-1.04-.94-.92,0-1.21.88-1.21,1.66s.19,1.69,1.2,1.69c.5,0,.92-.37,1.05-1.04h.71c-.08.7-.5,1.68-1.79,1.68s-1.96-.93-1.96-2.21c0-1.36.66-2.45,2.11-2.45,1.15,0,1.59.84,1.65,1.61h-.71Z"/>
          <path class="cls-1" d="M130.56,14.37h-.74v-2.71c0-.77-.22-1.15-.94-1.15-.42,0-1.16.27-1.16,1.47v2.4h-.74v-4.41h.7v.62h.02c.16-.24.57-.75,1.33-.75.68,0,1.54.28,1.54,1.53v3Z"/>
          <path class="cls-1" d="M133.44,9.83c1.4,0,2.04,1.19,2.04,2.33s-.64,2.32-2.04,2.32-2.04-1.19-2.04-2.32.64-2.33,2.04-2.33M133.44,13.84c1.06,0,1.28-1.09,1.28-1.68s-.22-1.68-1.28-1.68-1.28,1.09-1.28,1.68.22,1.68,1.28,1.68"/>
          <rect class="cls-1" x="136.34" y="8.32" width=".74" height="6.05"/>
          <path class="cls-1" d="M139.97,9.83c1.4,0,2.04,1.19,2.04,2.33s-.64,2.32-2.04,2.32-2.04-1.19-2.04-2.32.64-2.33,2.04-2.33M139.97,13.84c1.06,0,1.28-1.09,1.28-1.68s-.22-1.68-1.28-1.68-1.28,1.09-1.28,1.68.22,1.68,1.28,1.68M140.17,9.37h-.56l.75-1.19h.91l-1.09,1.19Z"/>
          <path class="cls-1" d="M146.5,14c0,.63,0,2.22-2.04,2.22-.52,0-1.54-.14-1.68-1.31h.74c.13.7.81.7.99.7,1.28,0,1.25-1.03,1.25-1.55v-.19h-.02v.03c-.19.31-.58.59-1.17.59-1.49,0-1.93-1.41-1.93-2.46,0-1.24.66-2.2,1.83-2.2.8,0,1.13.5,1.31.75h.02v-.62h.7v4.04ZM144.59,13.85c.47,0,1.2-.31,1.2-1.48,0-.72-.12-1.87-1.18-1.87-1.14,0-1.2,1.09-1.2,1.65,0,.97.38,1.7,1.18,1.7"/>
          <path class="cls-1" d="M147.54,8.32h.74v.84h-.74v-.84ZM148.28,14.37h-.74v-4.41h.74v4.41Z"/>
          <path class="cls-1" d="M152.13,11.44c-.09-.59-.42-.94-1.04-.94-.92,0-1.21.88-1.21,1.66s.19,1.69,1.2,1.69c.5,0,.92-.37,1.05-1.04h.71c-.08.7-.5,1.68-1.79,1.68s-1.96-.93-1.96-2.21c0-1.36.66-2.45,2.11-2.45,1.15,0,1.59.84,1.65,1.61h-.71Z"/>
          <path class="cls-1" d="M155.37,9.83c1.4,0,2.04,1.19,2.04,2.33s-.64,2.32-2.04,2.32-2.04-1.19-2.04-2.32.64-2.33,2.04-2.33M155.37,13.84c1.06,0,1.28-1.09,1.28-1.68s-.22-1.68-1.28-1.68-1.28,1.09-1.28,1.68.22,1.68,1.28,1.68"/>
        </g>
        <path class="cls-1" d="M83.96,10.09c-.04-.94-.81-1.23-1.49-1.23-.51,0-1.38.14-1.38,1.06,0,.51.36.68.71.77l1.72.4c.78.18,1.37.66,1.37,1.62,0,1.43-1.33,1.83-2.36,1.83-1.12,0-1.55-.34-1.82-.58-.51-.46-.61-.97-.61-1.53h.76c0,1.1.89,1.42,1.66,1.42.59,0,1.58-.15,1.58-1.02,0-.63-.29-.83-1.28-1.07l-1.23-.29c-.39-.09-1.28-.37-1.28-1.42,0-.94.61-1.87,2.07-1.87,2.11,0,2.32,1.26,2.35,1.93h-.76Z"/>
        <path class="cls-1" d="M88.7,14.37v-.64l-.02-.02c-.31.51-.69.78-1.39.78-.65,0-1.43-.31-1.43-1.36v-3.17h.74v2.92c0,.72.37.97.85.97.93,0,1.21-.83,1.21-1.47v-2.43h.74v4.41h-.7Z"/>
        <path class="cls-1" d="M90.44,9.96h.7v.62h.02c.18-.25.51-.75,1.31-.75,1.17,0,1.83.96,1.83,2.2,0,1.05-.44,2.46-1.93,2.46-.59,0-.97-.28-1.17-.59h-.02v2.21h-.74v-6.15ZM92.35,13.85c.81,0,1.18-.73,1.18-1.7,0-.56-.06-1.65-1.2-1.65-1.07,0-1.18,1.15-1.18,1.87,0,1.17.73,1.48,1.2,1.48"/>
        <path class="cls-1" d="M98.9,12.99c-.03.21-.23.83-.78,1.2-.2.14-.49.3-1.19.3-1.23,0-1.96-.93-1.96-2.21,0-1.36.65-2.45,2.11-2.45,1.27,0,1.89,1.01,1.89,2.57h-3.21c0,.92.43,1.45,1.28,1.45.7,0,1.11-.54,1.13-.87h.74ZM98.19,11.81c-.04-.68-.33-1.31-1.23-1.31-.68,0-1.22.63-1.22,1.31h2.44Z"/>
        <path class="cls-1" d="M100.68,14.37h-.74v-4.41h.7v.73h.02c.29-.51.68-.86,1.23-.86.09,0,.13,0,.19.03v.77h-.28c-.69,0-1.12.54-1.12,1.18v2.56Z"/>
        <path class="cls-1" d="M102.78,8.32h.74v.84h-.74v-.84ZM103.51,14.37h-.74v-4.41h.74v4.41Z"/>
        <path class="cls-1" d="M106.41,9.83c1.4,0,2.04,1.19,2.04,2.33s-.64,2.32-2.04,2.32-2.04-1.19-2.04-2.32.64-2.33,2.04-2.33M106.41,13.84c1.06,0,1.28-1.09,1.28-1.68s-.22-1.68-1.28-1.68-1.28,1.09-1.28,1.68.22,1.68,1.28,1.68"/>
        <path class="cls-1" d="M110.13,14.37h-.74v-4.41h.7v.73h.02c.29-.51.68-.86,1.23-.86.09,0,.13,0,.19.03v.77h-.28c-.69,0-1.13.54-1.13,1.18v2.56Z"/>
        <rect class="cls-1" x="48.89" y="8.32" width=".81" height="6.05"/>
        <path class="cls-1" d="M54.58,14.37h-.74v-2.71c0-.77-.22-1.15-.94-1.15-.42,0-1.16.27-1.16,1.47v2.4h-.74v-4.41h.7v.62h.02c.16-.24.57-.75,1.33-.75.68,0,1.54.28,1.54,1.53v3Z"/>
        <path class="cls-1" d="M58.17,11.22c0-.28-.11-.74-1.04-.74-.23,0-.87.08-.87.62,0,.36.23.45.8.59l.74.19c.92.23,1.23.56,1.23,1.16,0,.91-.75,1.46-1.74,1.46-1.74,0-1.86-1.01-1.89-1.54h.71c.03.35.13.9,1.17.9.53,0,1.01-.21,1.01-.7,0-.35-.24-.47-.87-.63l-.86-.21c-.61-.15-1.02-.46-1.02-1.07,0-.97.8-1.41,1.66-1.41,1.57,0,1.68,1.16,1.68,1.38h-.71Z"/>
        <path class="cls-1" d="M60.78,10.58v2.86c0,.35.29.35.45.35h.26v.58c-.27.03-.48.06-.55.06-.73,0-.89-.41-.89-.94v-2.91h-.6v-.61h.6v-1.23h.74v1.23h.71v.61h-.71Z"/>
        <path class="cls-1" d="M62.22,8.32h.74v.84h-.74v-.84ZM62.96,14.37h-.74v-4.41h.74v4.41Z"/>
        <path class="cls-1" d="M64.97,10.58v2.86c0,.35.29.35.44.35h.26v.58c-.27.03-.48.06-.55.06-.73,0-.89-.41-.89-.94v-2.91h-.6v-.61h.6v-1.23h.74v1.23h.71v.61h-.71Z"/>
        <path class="cls-1" d="M69.26,14.37v-.64l-.02-.02c-.31.51-.69.78-1.39.78-.65,0-1.43-.31-1.43-1.36v-3.17h.74v2.92c0,.72.37.97.85.97.93,0,1.21-.83,1.21-1.47v-2.43h.74v4.41h-.7Z"/>
        <path class="cls-1" d="M71.97,10.58v2.86c0,.35.29.35.45.35h.26v.58c-.27.03-.48.06-.55.06-.73,0-.89-.41-.89-.94v-2.91h-.6v-.61h.6v-1.23h.74v1.23h.71v.61h-.71Z"/>
        <path class="cls-1" d="M75.02,9.83c1.4,0,2.04,1.19,2.04,2.33s-.64,2.32-2.04,2.32-2.04-1.19-2.04-2.32.64-2.33,2.04-2.33M75.02,13.84c1.06,0,1.28-1.09,1.28-1.68s-.22-1.68-1.28-1.68-1.28,1.09-1.28,1.68.22,1.68,1.28,1.68"/>
      </g>
      <g>
        <circle class="cls-3" cx="19.93" cy="19.79" r="19.79"/>
        <g>
          <path class="cls-2" d="M19.93,0C8.92,0,0,8.95,0,19.99s8.92,19.99,19.93,19.99,19.93-8.95,19.93-19.99S30.94,0,19.93,0M19.93,35.92c-8.77,0-15.88-7.13-15.88-15.93s7.11-15.93,15.88-15.93,15.88,7.13,15.88,15.93-7.11,15.93-15.88,15.93"/>
          <polygon class="cls-4" points="15.55 1.47 16.11 2.05 16.9 1.93 16.52 2.64 16.89 3.36 16.09 3.21 15.52 3.78 15.42 2.98 14.7 2.61 15.43 2.26 15.55 1.47"/>
          <polygon class="cls-4" points="12.61 4.53 12.12 3.89 12.37 3.12 11.61 3.39 10.96 2.91 10.98 3.72 10.32 4.2 11.1 4.43 11.35 5.2 11.8 4.53 12.61 4.53"/>
          <polygon class="cls-4" points="20.01 1.03 20.4 1.74 21.2 1.83 20.65 2.41 20.82 3.2 20.09 2.86 19.39 3.26 19.49 2.46 18.9 1.92 19.69 1.77 20.01 1.03"/>
          <polygon class="cls-4" points="24.86 1.5 24.92 2.3 25.62 2.7 24.88 3.02 24.71 3.81 24.19 3.19 23.38 3.28 23.8 2.59 23.47 1.85 24.26 2.04 24.86 1.5"/>
          <polygon class="cls-4" points="27.53 3.14 28.27 3.47 28.95 3.05 28.87 3.85 29.48 4.38 28.69 4.54 28.38 5.29 27.98 4.59 27.18 4.52 27.72 3.92 27.53 3.14"/>
          <path class="cls-4" d="M29.37,22.31v.52c-.69.05-1.15.16-1.38.35-.38.29-.57.89-.57,1.81v5.52c0,.33-.8.77-2.41,1.31-1.6.55-3.15.82-4.63.82-.23,0-.45,0-.67-.02-2.44-.12-4.52-.91-6.24-2.38-2.07-1.76-3.1-4.13-3.1-7.1,0-2.61.82-4.85,2.47-6.71,1.74-1.98,4.03-3,6.87-3.08.11,0,.22,0,.34,0,1.08,0,2.15.15,3.2.45,1.04.3,1.65.45,1.8.45.4,0,.68-.08.85-.23.17-.15.31-.38.43-.67h.61l.22,5.9h-.64c-.57-1.36-1.16-2.37-1.77-3.04-1.1-1.17-2.54-1.76-4.3-1.76-.25,0-.5.02-.74.04-1.49.17-2.82.84-3.99,2.01-1.36,1.36-2.04,3.62-2.04,6.75,0,2.58.68,4.6,2.04,6.05,1.12,1.2,2.45,1.9,4,2.11.33.05.67.07,1.02.07s.73-.03,1.19-.1c.46-.06.89-.17,1.3-.3.66-.22,1.08-.41,1.24-.57.16-.16.24-.39.24-.7v-4.47c0-1.09-.15-1.76-.46-2.03-.31-.27-.97-.43-2-.5v-.52h7.13Z"/>
          <path class="cls-1" d="M27.77,13.7h-.67c-.32-1.5-.74-2.47-1.25-2.92-.51-.45-1.57-.68-3.19-.68h-1.56v14.36c0,1.08.17,1.75.51,2.01.34.26,1.07.43,2.21.51v.52h-8.15v-.52c1.18-.09,1.92-.29,2.21-.59.29-.3.44-1.06.44-2.26v-14.03h-1.57c-1.55,0-2.6.22-3.16.67-.56.45-.98,1.43-1.26,2.93h-.68l.17-4.77h15.82l.15,4.77Z"/>
        </g>
      </g>
    </g>
  </g>
</svg>